<svg width="43" height="43" viewBox="0 0 43 43" fill="none" xmlns="http://www.w3.org/2000/svg">
<path d="M21.5018 0C33.3735 0 43 9.61086 43 21.4658C43 33.3176 33.3735 42.929 21.5018 42.929C17.851 42.929 14.4136 42.0205 11.4013 40.418L0.043586 43L2.87648 32.1953C1.04696 29.0384 0 25.3742 0 21.4658C0 9.61086 9.62775 0 21.5018 0Z" fill="url(#paint0_linear_1367_14757)"/>
<path fill-rule="evenodd" clip-rule="evenodd" d="M24.4498 23.1175C23.7919 22.4813 23.77 21.4358 24.401 20.7743C25.0374 20.1166 26.0857 20.0947 26.749 20.7308L30.8833 24.7122C31.5412 25.348 31.5626 26.3989 30.9263 27.0566C30.294 27.7127 29.2419 27.7346 28.5837 27.0984L24.4498 23.1175ZM20.5258 26.5384C19.8836 25.8919 19.8948 24.8421 20.5473 24.201C21.2013 23.5595 22.2481 23.5702 22.8898 24.2172L27.089 28.4572C27.7308 29.1083 27.72 30.1592 27.0725 30.8004C26.42 31.4419 25.3679 31.4311 24.7246 30.7788L20.5258 26.5384ZM18.9129 13.3382C19.2418 13.6241 19.4465 14.0335 19.4791 14.4701C19.5113 14.9056 19.3666 15.3365 19.0795 15.6717C18.4811 16.3605 17.429 16.4362 16.7435 15.8385C15.7658 14.9979 14.4972 14.7169 13.2732 15.1213C12.7435 15.2946 12.2576 15.5848 11.8542 15.9619C11.4707 16.3278 11.1674 16.7753 10.9955 17.2772C10.5364 18.6183 11.1241 19.9771 11.9662 21.0157C12.0368 21.0914 12.1125 21.1621 12.1831 21.2313C12.3658 21.4196 12.5554 21.6026 12.7381 21.7871C13.3542 22.4056 13.9745 23.0198 14.5894 23.6394C16.2521 25.2992 17.9134 26.9535 19.5708 28.6133C20.4026 29.4431 21.2394 30.2784 22.0692 31.1082C22.3237 31.3604 22.577 31.6141 22.8304 31.8678C22.9279 31.9692 23.0361 32.0669 23.1282 32.1687C23.7539 32.8372 23.7159 33.8881 23.0468 34.5077C22.3782 35.1327 21.3246 35.095 20.6989 34.4266C20.6068 34.3247 20.5039 34.2271 20.4079 34.1306C20.1588 33.8827 19.9109 33.6344 19.6576 33.381C18.848 32.5727 18.0328 31.759 17.2229 30.9457C15.5236 29.249 13.8175 27.5516 12.1236 25.8496C11.4872 25.2138 10.8493 24.5723 10.2128 23.9365C10.0178 23.7424 9.82977 23.5487 9.64015 23.3546C9.58718 23.3004 9.5331 23.2462 9.47896 23.1878C9.45171 23.1662 9.41948 23.1336 9.39757 23.1067C8.55007 22.0612 7.89753 20.8542 7.63345 19.5239C7.41659 18.4134 7.48722 17.2826 7.85418 16.2152C8.19923 15.2024 8.79382 14.3022 9.57107 13.5645C10.3265 12.8485 11.2435 12.298 12.2319 11.9751C13.3112 11.62 14.4769 11.5223 15.5939 11.7272C16.8344 11.9483 17.9568 12.5137 18.9129 13.3382ZM23.6399 13.7149L23.6345 13.7095L23.7212 13.6241C25.0428 12.3088 26.8196 11.6146 28.6812 11.6254C30.5163 11.6308 32.2969 12.3303 33.6361 13.5861L33.8023 13.7421C34.9953 14.9326 35.6805 16.4689 35.7184 18.1544C35.7565 19.836 35.1308 21.4469 34.0461 22.7242C33.4573 23.42 32.4052 23.5053 31.7089 22.918C31.013 22.331 30.9262 21.2801 31.5139 20.5844C32.0762 19.9225 32.4267 19.0873 32.4052 18.2197C32.3886 17.4006 32.0275 16.663 31.4544 16.0918C31.4221 16.0595 31.3964 16.0269 31.3638 15.9999C30.6353 15.315 29.6684 14.9326 28.6651 14.9272C27.6928 14.9218 26.7654 15.2839 26.0745 15.9727L25.9882 16.0595H25.9828L19.4791 22.9775C18.8534 23.6448 17.8013 23.6775 17.1365 23.0525C16.4675 22.4271 16.4349 21.3778 17.0621 20.7093L23.575 13.7856C23.5969 13.7583 23.6184 13.7368 23.6399 13.7149Z" fill="white"/>
<defs>
<linearGradient id="paint0_linear_1367_14757" x1="0" y1="21.4999" x2="43" y2="21.4999" gradientUnits="userSpaceOnUse">
<stop stop-color="#A400DB"/>
<stop offset="0.4" stop-color="#C134DD"/>
<stop offset="1" stop-color="#DE69E0"/>
</linearGradient>
</defs>
</svg>
