<svg width="2128" height="1586" viewBox="0 0 2128 1586" fill="none" xmlns="http://www.w3.org/2000/svg">
<path fill-rule="evenodd" clip-rule="evenodd" d="M423.8 1026.51C423.796 1026.5 424.011 1026.18 424.46 1025.61C424.029 1026.24 423.804 1026.52 423.8 1026.51ZM715.424 1023.73C716.785 1025.37 717.428 1026.34 717.41 1026.41C717.392 1026.48 716.712 1025.66 715.424 1023.73ZM611.75 509.011C631.009 471.493 651.858 436.351 674.419 403.975C749.089 296.817 883.811 165.1 1083.32 166.566C1283.88 168.039 1416.52 302.917 1489.11 412.478C1565.85 528.328 1620.28 678.088 1658.43 844.94C1695.24 1005.98 1594.55 1166.34 1433.52 1203.12C1272.49 1239.9 1112.11 1139.17 1075.3 978.137C1075.17 977.562 1075.04 976.988 1074.9 976.415C1074.65 977.406 1074.39 978.4 1074.14 979.397C1045.82 1089.88 1012.79 1187.31 973.057 1268.34C936.005 1343.9 879.368 1434.06 788.838 1495.79C678.943 1570.71 539.625 1588.09 411.517 1528.85C307.644 1480.81 243.136 1396.95 205.819 1336.97C128.084 1212.04 78.7165 1043.68 49.4575 877.414C18.9907 704.28 5.5291 505.462 15.7193 302.997C24.0222 138.025 164.49 11.0473 329.462 19.3836C494.434 27.7199 621.44 168.214 613.137 333.185C610.136 392.816 609.8 451.799 611.75 509.011Z" fill="url(#paint0_linear_1229_50)"/>
<path fill-rule="evenodd" clip-rule="evenodd" d="M1524.82 470.025C1525 424.709 1523.81 378.229 1521.08 331.004C1511.54 166.095 1637.49 24.7078 1802.4 15.2059C1967.31 5.70403 2108.72 131.686 2118.25 296.594C2130.56 509.515 2118.37 714.722 2088.64 891.662C2060.15 1061.27 2011.24 1231.28 1933.17 1356.32C1895.93 1415.95 1829.6 1502.09 1721.05 1548.53C1585.73 1606.42 1445.78 1577.87 1342.23 1499.87C1256.72 1435.46 1203.88 1345.07 1169.26 1269.08C1132.1 1187.5 1101.5 1089.76 1075.64 978.893C1075.42 977.95 1075.2 977.01 1074.98 976.072C1074.39 978.23 1073.8 980.401 1073.21 982.586C1030.15 1142.05 865.965 1236.39 706.495 1193.29C547.024 1150.2 452.654 986.001 495.713 826.539C540.202 661.781 599.094 514.664 677.489 401.751C750.382 296.762 884.32 161.718 1085.44 163.217C1288.37 164.729 1419.89 303.822 1490.21 411.825C1502.28 430.373 1513.81 449.796 1524.82 470.025ZM1422.61 1043.97C1422.59 1043.89 1423.27 1042.85 1424.71 1041.08C1423.35 1043.16 1422.63 1044.05 1422.61 1043.97ZM1725.91 1044.77C1726.17 1045.11 1726.29 1045.29 1726.28 1045.29C1726.28 1045.3 1726.16 1045.13 1725.91 1044.77Z" fill="url(#paint1_linear_1229_50)"/>
<g style="mix-blend-mode:color-dodge">
<path fill-rule="evenodd" clip-rule="evenodd" d="M1516.19 651.108C1524.97 552.223 1527.29 443.274 1520.74 330.041C1511.21 165.132 1637.16 23.7449 1802.06 14.243C1966.97 4.74114 2108.38 130.723 2117.92 295.631C2130.23 508.552 2118.03 713.759 2088.31 890.699C2059.81 1060.31 2010.9 1230.32 1932.83 1355.36C1895.6 1414.99 1829.26 1501.13 1720.72 1547.57C1585.4 1605.46 1445.45 1576.9 1341.89 1498.9C1256.38 1434.49 1203.54 1344.11 1168.93 1268.12C1131.77 1186.53 1101.16 1088.8 1075.3 977.93C1037.78 817.058 1137.77 656.257 1298.64 618.771C1375.68 600.818 1452.71 614.404 1516.19 651.108ZM1422.28 1043C1422.26 1042.93 1422.94 1041.89 1424.37 1040.12C1423.01 1042.2 1422.3 1043.08 1422.28 1043ZM1725.58 1043.8C1725.83 1044.14 1725.95 1044.33 1725.95 1044.33C1725.95 1044.34 1725.82 1044.17 1725.58 1043.8Z" fill="url(#paint2_linear_1229_50)"/>
</g>
<defs>
<linearGradient id="paint0_linear_1229_50" x1="516.23" y1="278.818" x2="1578.58" y2="1463.99" gradientUnits="userSpaceOnUse">
<stop stop-color="#3D589E"/>
<stop offset="0.505208" stop-color="#536ADE"/>
<stop offset="1" stop-color="#2594EF"/>
<stop offset="1" stop-color="#469EEF"/>
</linearGradient>
<linearGradient id="paint1_linear_1229_50" x1="1294.51" y1="1576.09" x2="2619.4" y2="1364.75" gradientUnits="userSpaceOnUse">
<stop stop-color="#3D589E"/>
<stop offset="0.505208" stop-color="#536ADE"/>
<stop offset="1" stop-color="#2594EF"/>
<stop offset="1" stop-color="#469EEF"/>
</linearGradient>
<linearGradient id="paint2_linear_1229_50" x1="1392.44" y1="270.703" x2="2404.73" y2="975.543" gradientUnits="userSpaceOnUse">
<stop stop-color="#3D589E"/>
<stop offset="0.505208" stop-color="#536ADE"/>
<stop offset="1" stop-color="#2594EF"/>
<stop offset="1" stop-color="#469EEF"/>
</linearGradient>
</defs>
</svg>
